<svg width="24" height="24" viewBox="0 0 24 24" fill="none" xmlns="http://www.w3.org/2000/svg">
<path fill-rule="evenodd" clip-rule="evenodd" d="M11.3988 2.04136C9.38976 2.26836 7.67076 3.77536 7.15976 5.75736C6.91876 6.69036 6.98176 7.87235 7.31876 8.74935C7.57319 9.40745 7.96101 10.0058 8.45785 10.5068C8.95469 11.0077 9.5498 11.4005 10.2058 11.6604C11.2968 12.0904 12.7008 12.0904 13.7918 11.6604C15.1338 11.1324 16.2218 10.0194 16.6978 8.68535C17.0948 7.57335 17.0808 6.26935 16.6618 5.20436C16.0718 3.70335 14.7768 2.55136 13.2388 2.15936C12.6373 2.01122 12.0142 1.97126 11.3988 2.04136ZM12.8588 4.11836C13.3366 4.26833 13.7707 4.53233 14.1237 4.88757C14.4766 5.24281 14.7378 5.67861 14.8848 6.15735C15.0198 6.59135 15.0198 7.40336 14.8848 7.83736C14.7369 8.31964 14.4731 8.75832 14.1164 9.11501C13.7597 9.4717 13.321 9.73551 12.8388 9.88335C12.4048 10.0184 11.5928 10.0184 11.1588 9.88335C10.5688 9.69935 10.1058 9.38835 9.67776 8.88835C9.42109 8.5793 9.22897 8.22192 9.11276 7.83736C8.97776 7.40336 8.97776 6.59135 9.11276 6.15735C9.45376 5.06335 10.3718 4.23636 11.4698 4.03636C11.7958 3.97636 12.5448 4.02035 12.8588 4.11836ZM11.3588 13.0214C8.47676 13.2154 5.96776 14.2194 4.32676 15.8344C3.09376 17.0474 2.69976 18.4194 3.25276 19.5764C3.82376 20.7724 5.47976 21.5124 8.25876 21.8134C9.43576 21.9404 10.2078 21.9734 11.9988 21.9734C13.7898 21.9734 14.5618 21.9404 15.7388 21.8134C18.5178 21.5124 20.1738 20.7724 20.7448 19.5764C21.1008 18.8314 21.0738 18.0284 20.6638 17.1774C19.6888 15.1524 16.6248 13.4344 13.3588 13.0814C12.9358 13.0354 11.6988 12.9984 11.3588 13.0214ZM13.0588 15.0544C13.9288 15.1574 14.3688 15.2484 15.1388 15.4864C16.7138 15.9714 18.1378 16.9014 18.7568 17.8484C19.0608 18.3144 19.0678 18.6064 18.7808 18.8714C18.2178 19.3904 16.8128 19.7424 14.5788 19.9244C13.7148 19.9954 10.2828 19.9954 9.41876 19.9244C7.18476 19.7424 5.77976 19.3904 5.21676 18.8714C4.92976 18.6064 4.93676 18.3144 5.24076 17.8484C6.06176 16.5924 8.16176 15.4724 10.3188 15.1394C11.3088 14.9864 12.2358 14.9574 13.0588 15.0544Z" fill="#6B7280"/>
</svg>
