<svg width="24" height="24" viewBox="0 0 24 24" fill="none" xmlns="http://www.w3.org/2000/svg">
<path fill-rule="evenodd" clip-rule="evenodd" d="M4.4752 4.07581C3.9862 4.20381 3.5442 4.54581 3.2632 5.01681C3.0062 5.44581 2.9982 5.53681 3.0002 8.03081C3.0022 10.0068 3.0102 10.2928 3.0712 10.5258C3.2512 11.2148 3.8582 11.7978 4.5472 11.9438C4.9532 12.0298 19.0432 12.0298 19.4492 11.9438C19.8202 11.8658 20.0902 11.7118 20.3992 11.4038C20.7072 11.0948 20.8612 10.8248 20.9392 10.4538C21.0232 10.0578 21.0232 5.94781 20.9392 5.55181C20.7932 4.86281 20.2102 4.25581 19.5212 4.07581C19.2772 4.01281 18.7322 4.00781 11.9982 4.00781C5.2642 4.00781 4.7192 4.01281 4.4752 4.07581ZM18.9982 8.00281V10.0028H4.9982V6.00281H18.9982V8.00281ZM7.6712 7.06581C7.3082 7.17781 6.9982 7.60881 6.9982 8.00281C6.9982 8.40781 7.3072 8.82881 7.6882 8.94181C7.9852 9.02981 10.0112 9.02981 10.3082 8.94181C10.6862 8.82981 10.9982 8.40481 10.9982 8.00281C10.9982 7.60081 10.6862 7.17581 10.3082 7.06381C10.0212 6.97781 7.9502 6.97981 7.6712 7.06581ZM4.4752 13.0758C3.9862 13.2038 3.5442 13.5458 3.2632 14.0168C3.0062 14.4458 2.9982 14.5368 3.0002 17.0308C3.0022 19.0068 3.0102 19.2928 3.0712 19.5258C3.2512 20.2148 3.8582 20.7978 4.5472 20.9438C4.9532 21.0298 19.0432 21.0298 19.4492 20.9438C19.8202 20.8658 20.0902 20.7118 20.3992 20.4038C20.7072 20.0948 20.8612 19.8248 20.9392 19.4538C21.0232 19.0578 21.0232 14.9478 20.9392 14.5518C20.7932 13.8628 20.2102 13.2558 19.5212 13.0758C19.2772 13.0128 18.7322 13.0078 11.9982 13.0078C5.2642 13.0078 4.7192 13.0128 4.4752 13.0758ZM18.9982 17.0028V19.0028H4.9982V15.0028H18.9982V17.0028ZM7.6712 16.0658C7.3082 16.1778 6.9982 16.6088 6.9982 17.0028C6.9982 17.4078 7.3072 17.8288 7.6882 17.9418C7.9852 18.0298 10.0112 18.0298 10.3082 17.9418C10.6862 17.8298 10.9982 17.4048 10.9982 17.0028C10.9982 16.6008 10.6862 16.1758 10.3082 16.0638C10.0212 15.9778 7.9502 15.9798 7.6712 16.0658Z" fill="#6B7280"/>
</svg>
