<svg width="50" height="50" viewBox="0 0 50 50" fill="none" xmlns="http://www.w3.org/2000/svg">
<path fill-rule="evenodd" clip-rule="evenodd" d="M21.2021 4.25424C18.3141 4.54165 15.621 5.84206 13.6 7.92508C11.5693 9.95174 10.3207 12.6312 10.075 15.4897C9.975 16.5334 9.975 33.4626 10.075 34.5063C10.3312 37.4385 11.6377 40.1796 13.7542 42.2251C15.7808 44.2558 18.4603 45.5044 21.3187 45.7501C22.3542 45.8501 26.8 45.8501 27.8354 45.7501C30.6939 45.5044 33.3733 44.2558 35.4 42.2251C37.5165 40.1796 38.823 37.4385 39.0792 34.5063C39.1792 33.4626 39.1792 16.5334 39.0792 15.4897C38.823 12.5574 37.5165 9.8164 35.4 7.77091C33.3733 5.74021 30.6939 4.49161 27.8354 4.24591C26.8875 4.15424 22.1562 4.15841 21.2021 4.25424ZM28.2687 8.50216C29.8885 8.81931 31.3769 9.61202 32.5439 10.7791C33.711 11.9461 34.5037 13.4345 34.8208 15.0542C34.9896 15.8772 34.9937 16.1313 34.9937 24.998C34.9937 33.8647 34.9896 34.1188 34.8208 34.9417C34.5037 36.5615 33.711 38.0499 32.5439 39.2169C31.3769 40.384 29.8885 41.1767 28.2687 41.4938C27.5146 41.6459 27.125 41.6647 24.5771 41.6647C22.0271 41.6647 21.6396 41.6459 20.8833 41.4917C19.2636 41.1746 17.7752 40.3819 16.6082 39.2148C15.4411 38.0478 14.6484 36.5594 14.3312 34.9397C14.1646 34.1188 14.1604 33.8563 14.1604 24.998C14.1604 16.1313 14.1646 15.8772 14.3333 15.0542C14.6503 13.4437 15.4366 11.9629 16.5932 10.7981C17.7498 9.63336 19.225 8.83671 20.8333 8.50841C21.525 8.36258 21.9646 8.34174 24.5229 8.33758C27.1396 8.33133 27.5083 8.34799 28.2687 8.50216ZM23.8958 12.6292C23.3521 12.7959 22.7854 13.3751 22.6208 13.9355C22.4271 14.5876 22.4312 23.0376 22.6271 23.6105C22.8854 24.3667 23.7708 24.998 24.5771 24.998C25.0708 24.998 25.6479 24.748 26.0292 24.3667C26.6646 23.7292 26.6604 23.7709 26.6604 18.748C26.6604 13.7251 26.6646 13.7667 26.0292 13.1292C25.4479 12.548 24.7167 12.3772 23.8958 12.6292Z" fill="white"/>
</svg>
