<svg width="24" height="24" viewBox="0 0 24 24" fill="none" xmlns="http://www.w3.org/2000/svg">
<path fill-rule="evenodd" clip-rule="evenodd" d="M4.47581 3.07581C3.98681 3.20381 3.54481 3.54581 3.26381 4.01681C2.98281 4.48481 2.99881 4.00281 3.00081 12.0308C3.00281 18.7338 3.00881 19.2818 3.07181 19.5258C3.25181 20.2148 3.85881 20.7978 4.54781 20.9438C4.95381 21.0298 19.0438 21.0298 19.4498 20.9438C19.8208 20.8658 20.0908 20.7118 20.3998 20.4038C20.7078 20.0948 20.8618 19.8248 20.9398 19.4538C21.0258 19.0478 21.0258 4.95781 20.9398 4.55181C20.7938 3.86281 20.2108 3.25581 19.5218 3.07581C19.2778 3.01281 18.7328 3.00781 11.9988 3.00781C5.26481 3.00781 4.71981 3.01281 4.47581 3.07581ZM10.9988 6.50281V8.00281H4.99881V5.00281H10.9988V6.50281ZM18.9988 6.50281V8.00281H12.9988V5.00281H18.9988V6.50281ZM10.9988 11.5028V13.0028H4.99881V10.0028H10.9988V11.5028ZM18.9988 11.5028V13.0028H12.9988V10.0028H18.9988V11.5028ZM10.9988 17.0028V19.0028H4.99881V15.0028H10.9988V17.0028ZM18.9988 17.0028V19.0028H12.9988V15.0028H18.9988V17.0028Z" fill="#6B7280"/>
</svg>
