<svg width="24" height="24" viewBox="0 0 24 24" fill="none" xmlns="http://www.w3.org/2000/svg">
<path fill-rule="evenodd" clip-rule="evenodd" d="M11.6713 2.06206C11.4103 2.14206 11.1383 2.42006 11.0593 2.68906C11.0063 2.86706 10.9983 3.55307 10.9983 8.07507V13.2571L9.62827 11.8931C8.14927 10.4201 8.15827 10.4271 7.73527 10.4301C7.21427 10.4351 6.80727 10.8271 6.76627 11.3621C6.73327 11.8051 6.68627 11.7491 9.21027 14.2681C11.2913 16.3451 11.5143 16.5571 11.6783 16.6001C11.9463 16.6711 12.3113 16.6301 12.5013 16.5081C12.5873 16.4521 13.6593 15.4011 14.8833 14.1731C17.3283 11.7191 17.2683 11.7911 17.2303 11.3501C17.1853 10.8231 16.7773 10.4351 16.2613 10.4301C15.8383 10.4271 15.8473 10.4201 14.3683 11.8931L12.9983 13.2571V8.07507C12.9983 2.23307 13.0193 2.62606 12.6953 2.30206C12.4163 2.02306 12.0653 1.94106 11.6713 2.06206ZM3.67127 15.0621C3.42727 15.1371 3.14827 15.4131 3.06227 15.6651C3.00627 15.8291 2.99827 16.1371 3.00027 18.0561C3.00227 20.0051 3.01127 20.2891 3.07127 20.5221C3.25127 21.2111 3.85827 21.7941 4.54727 21.9401C4.95327 22.0261 19.0433 22.0261 19.4493 21.9401C19.8203 21.8621 20.0903 21.7081 20.3993 21.4001C20.7073 21.0911 20.8613 20.8211 20.9393 20.4501C21.0263 20.0391 21.0253 15.9831 20.9373 15.6891C20.8253 15.3111 20.4003 14.9991 19.9983 14.9991C19.7623 14.9991 19.4843 15.1201 19.3043 15.2991C18.9943 15.6101 18.9983 15.5721 18.9983 17.9261V19.9991H4.99827V17.9461C4.99827 15.5941 5.00027 15.6071 4.69527 15.3021C4.41627 15.0231 4.06527 14.9411 3.67127 15.0621Z" fill="#286CF7"/>
</svg>
