<svg width="64" height="59" viewBox="0 0 64 59" fill="none" xmlns="http://www.w3.org/2000/svg">
<rect y="16" width="42.6633" height="42.6633" rx="5" fill="url(#paint0_linear_573_3080)"/>
<path d="M21.3301 38.6102C24.4535 38.6102 27.2941 39.4984 29.3837 40.7501C30.4266 41.3747 31.3183 42.112 31.9623 42.9132C32.5958 43.7003 33.0625 44.6423 33.0625 45.6496C33.0625 46.7311 32.5267 47.5835 31.755 48.1915C31.025 48.7674 30.0616 49.1488 29.0383 49.4151C26.9812 49.9488 24.2358 50.1293 21.3301 50.1293C18.4243 50.1293 15.679 49.9501 13.6219 49.4151C12.5985 49.1488 11.6352 48.7674 10.9052 48.1915C10.1321 47.5823 9.59766 46.7311 9.59766 45.6496C9.59766 44.6423 10.0643 43.7003 10.6979 42.9119C11.3419 42.112 12.2322 41.376 13.2764 40.7489C15.3661 39.4997 18.2079 38.6102 21.3301 38.6102ZM21.3301 24.5312C23.0588 24.5312 24.7166 25.2055 25.939 26.4056C27.1614 27.6058 27.8481 29.2335 27.8481 30.9308C27.8481 32.628 27.1614 34.2557 25.939 35.4559C24.7166 36.656 23.0588 37.3303 21.3301 37.3303C19.6014 37.3303 17.9435 36.656 16.7211 35.4559C15.4988 34.2557 14.8121 32.628 14.8121 30.9308C14.8121 29.2335 15.4988 27.6058 16.7211 26.4056C17.9435 25.2055 19.6014 24.5312 21.3301 24.5312Z" fill="white"/>
<rect x="21.332" width="42.6633" height="42.6633" rx="5" fill="white" fill-opacity="0.1"/>
<defs>
<linearGradient id="paint0_linear_573_3080" x1="21.3317" y1="16" x2="21.3317" y2="58.6633" gradientUnits="userSpaceOnUse">
<stop stop-color="#EDEDED"/>
<stop offset="0.5" stop-color="#D1D1D1"/>
<stop offset="1" stop-color="#BBBBBB"/>
</linearGradient>
</defs>
</svg>
