<svg width="66" height="59" viewBox="0 0 66 59" fill="none" xmlns="http://www.w3.org/2000/svg">
<path d="M20.6916 10.1746C22.4561 5.01059 29.5909 4.8542 31.683 9.70544L31.86 10.1776L34.2413 17.1417C34.787 18.7388 35.6689 20.2003 36.8274 21.4276C37.9859 22.6549 39.3941 23.6195 40.9571 24.2562L41.5974 24.4952L48.5611 26.8736C53.7249 28.6383 53.8813 35.7735 49.0332 37.8657L48.5611 38.0427L41.5974 40.4241C39.9999 40.9695 38.5378 41.8512 37.3101 43.0098C36.0823 44.1684 35.1173 45.5769 34.4803 47.1403L34.2413 47.7777L31.863 54.7447C30.0985 59.9087 22.9636 60.0651 20.8745 55.2168L20.6916 54.7447L18.3133 47.7806C17.7679 46.183 16.8862 44.7209 15.7277 43.493C14.5691 42.2652 13.1607 41.3002 11.5974 40.6631L10.9601 40.4241L3.99639 38.0457C-1.17032 36.281 -1.32671 29.1458 3.52428 27.0566L3.99639 26.8736L10.9601 24.4952C12.5571 23.9495 14.0185 23.0676 15.2458 21.909C16.473 20.7504 17.4375 19.3421 18.0743 17.779L18.3133 17.1417L20.6916 10.1746ZM49.883 5.33187e-07C50.4351 -6.96325e-07 50.976 0.154857 51.4444 0.446974C51.9128 0.739091 52.2899 1.15675 52.5328 1.65249L52.6744 1.99775L53.7072 5.02535L56.7376 6.05815C57.2908 6.24611 57.7757 6.59408 58.131 7.05796C58.4862 7.52183 58.6958 8.08074 58.7331 8.66384C58.7704 9.24694 58.6337 9.82799 58.3405 10.3333C58.0472 10.8387 57.6105 11.2456 57.0858 11.5025L56.7376 11.6442L53.7101 12.677L52.6774 15.7075C52.4891 16.2606 52.1409 16.7453 51.6769 17.1003C51.2128 17.4553 50.6539 17.6645 50.0708 17.7015C49.4878 17.7385 48.9069 17.6015 48.4017 17.308C47.8966 17.0145 47.4899 16.5776 47.2333 16.0528L47.0917 15.7075L46.0589 12.6799L43.0285 11.6471C42.4753 11.4592 41.9904 11.1112 41.6351 10.6473C41.2799 10.1834 41.0703 9.62453 41.033 9.04143C40.9957 8.45833 41.1324 7.87728 41.4256 7.37192C41.7189 6.86657 42.1556 6.45965 42.6803 6.20275L43.0285 6.0611L46.056 5.0283L47.0887 1.99775C47.2877 1.41473 47.6641 0.908601 48.1652 0.550335C48.6664 0.19207 49.267 -0.00036969 49.883 5.33187e-07Z" fill="url(#paint0_linear_573_3101)"/>
<circle cx="45.8583" cy="25.9286" r="19.9661" fill="url(#paint1_linear_573_3101)" fill-opacity="0.13" stroke="white" stroke-width="0.3"/>
<defs>
<linearGradient id="paint0_linear_573_3101" x1="9.0334" y1="10.2781" x2="63.1458" y2="47.8952" gradientUnits="userSpaceOnUse">
<stop stop-color="#F9FF91"/>
<stop offset="0.572115" stop-color="#CBF287"/>
<stop offset="1" stop-color="#539D2F" stop-opacity="0.77"/>
</linearGradient>
<linearGradient id="paint1_linear_573_3101" x1="25.7422" y1="5.8125" x2="65.5996" y2="45.6699" gradientUnits="userSpaceOnUse">
<stop stop-color="#F2FD8F"/>
<stop offset="1" stop-color="#BBE57E"/>
</linearGradient>
</defs>
</svg>
