<svg width="63" height="64" viewBox="0 0 63 64" fill="none" xmlns="http://www.w3.org/2000/svg">
<path d="M45.3916 42.0078C51.3785 42.0078 56.2324 46.8617 56.2324 52.8486C56.2323 58.8354 51.3784 63.6885 45.3916 63.6885C39.4049 63.6884 34.5519 58.8354 34.5518 52.8486C34.5518 46.8618 39.4048 42.0079 45.3916 42.0078ZM13.5508 29.1318C21.0343 29.1321 27.1006 35.1991 27.1006 42.6826C27.1005 50.1661 21.0342 56.2322 13.5508 56.2324C6.06716 56.2324 8.09203e-05 50.1662 0 42.6826C0 35.1989 6.06711 29.1318 13.5508 29.1318ZM45.3936 0C55.1222 0.000206154 63.0088 7.88757 63.0088 17.6162C63.0086 27.3447 55.122 35.2312 45.3936 35.2314C35.6649 35.2314 27.7775 27.3448 27.7773 17.6162C27.7773 7.88744 35.6648 0 45.3936 0Z" fill="url(#paint0_linear_573_3008)"/>
<circle cx="36.5929" cy="35.2297" r="20.8531" fill="white" fill-opacity="0.37" stroke="white" stroke-width="0.3"/>
<defs>
<linearGradient id="paint0_linear_573_3008" x1="25.4068" y1="31.8442" x2="76.2221" y2="84.3516" gradientUnits="userSpaceOnUse">
<stop stop-color="#DFECFF"/>
<stop offset="0.461538" stop-color="#98A3FF"/>
<stop offset="0.889423" stop-color="#3F7FDC"/>
<stop offset="1" stop-color="#286DD3"/>
</linearGradient>
</defs>
</svg>
