<svg width="52" height="51" viewBox="0 0 52 51" fill="none" xmlns="http://www.w3.org/2000/svg">
<path d="M24 0C19.015 0 14.2343 1.9796 10.7094 5.50331C7.18446 9.02702 5.20419 13.8062 5.20419 18.7895V28.2594C5.20458 28.6758 5.10806 29.0865 4.92225 29.4592L0.311911 38.6741C0.0867003 39.1243 -0.019642 39.6246 0.00298394 40.1274C0.0256099 40.6303 0.176453 41.119 0.441186 41.5471C0.705919 41.9753 1.07575 42.3287 1.51556 42.5738C1.95537 42.8188 2.45055 42.9474 2.95406 42.9474H45.0459C45.5495 42.9474 46.0446 42.8188 46.4844 42.5738C46.9242 42.3287 47.2941 41.9753 47.5588 41.5471C47.8235 41.119 47.9744 40.6303 47.997 40.1274C48.0196 39.6246 47.9133 39.1243 47.6881 38.6741L43.0804 29.4592C42.8937 29.0868 42.7963 28.676 42.7958 28.2594V18.7895C42.7958 13.8062 40.8155 9.02702 37.2906 5.50331C33.7657 1.9796 28.985 0 24 0ZM24 51C22.3336 51.0005 20.708 50.4845 19.3471 49.523C17.9862 48.5616 16.957 47.202 16.4011 45.6316H31.5989C31.043 47.202 30.0138 48.5616 28.6529 49.523C27.292 50.4845 25.6664 51.0005 24 51Z" fill="url(#paint0_linear_573_3059)"/>
<circle cx="38" cy="14" r="13.85" fill="url(#paint1_radial_573_3059)" fill-opacity="0.18" stroke="white" stroke-width="0.3"/>
<path d="M23.5 2C18.6667 2.5 9.2 5.9 8 15.5" stroke="white" stroke-linecap="round"/>
<defs>
<linearGradient id="paint0_linear_573_3059" x1="15" y1="9.5" x2="44.5" y2="37" gradientUnits="userSpaceOnUse">
<stop stop-color="#CBBEFF"/>
<stop offset="0.447115" stop-color="#B4C5FE"/>
<stop offset="1" stop-color="#8385FF"/>
</linearGradient>
<radialGradient id="paint1_radial_573_3059" cx="0" cy="0" r="1" gradientUnits="userSpaceOnUse" gradientTransform="translate(38 14) rotate(90) scale(14)">
<stop offset="0.721154" stop-color="white"/>
<stop offset="1" stop-color="#C5C6FF"/>
</radialGradient>
</defs>
</svg>
