<svg width="7" height="12" viewBox="0 0 7 12" fill="none" xmlns="http://www.w3.org/2000/svg">
<path fill-rule="evenodd" clip-rule="evenodd" d="M1.30193 0.0916151C1.4413 0.160265 2.10513 0.79437 4.18374 2.84663C6.64102 5.27286 6.88858 5.52848 6.9436 5.69017C7.0188 5.89008 7.0188 6.10992 6.9436 6.30983C6.88858 6.47151 6.64102 6.72714 4.18374 9.15337C2.10513 11.2056 1.4413 11.8397 1.30193 11.9084C1.19218 11.9612 1.07283 11.9919 0.950882 11.9986C0.828936 12.0053 0.706853 11.988 0.591803 11.9476C0.476752 11.9072 0.371051 11.8446 0.280907 11.7634C0.190764 11.6822 0.117994 11.5841 0.0668702 11.4748C-0.0248195 11.2761 -0.0220693 10.9428 0.0742049 10.7332C0.131052 10.6086 0.689442 10.0368 2.46547 8.28531L4.78339 6L2.46547 3.71469C0.689442 1.96322 0.131052 1.39144 0.0742049 1.26679C-0.0220693 1.05723 -0.0248195 0.723914 0.0668702 0.525192C0.117994 0.415915 0.190764 0.317803 0.280907 0.236615C0.371051 0.155427 0.476752 0.0927992 0.591803 0.0524098C0.706853 0.0120203 0.828936 -0.00531739 0.950882 0.00141513C1.07283 0.00814764 1.19218 0.0388147 1.30193 0.0916151Z" fill="#E5E7EB"/>
</svg>
