<svg width="11" height="18" viewBox="0 0 11 18" fill="none" xmlns="http://www.w3.org/2000/svg">
<path fill-rule="evenodd" clip-rule="evenodd" d="M8.28602 0.135233C8.08336 0.236566 7.11802 1.17257 4.09536 4.2019C0.522022 7.78323 0.162022 8.16057 0.0820218 8.39923C-0.0273406 8.69431 -0.0273406 9.01882 0.0820218 9.3139C0.162022 9.55257 0.522022 9.9299 4.09536 13.5112C7.11802 16.5406 8.08336 17.4766 8.28602 17.5779C8.44562 17.6558 8.61918 17.7011 8.79651 17.711C8.97384 17.721 9.15137 17.6954 9.31868 17.6358C9.48598 17.5762 9.63969 17.4837 9.77077 17.3639C9.90186 17.244 10.0077 17.0992 10.082 16.9379C10.2154 16.6446 10.2114 16.1526 10.0714 15.8432C9.98869 15.6592 9.17669 14.8152 6.59402 12.2299L3.22336 8.85657L6.59402 5.48323C9.17669 2.8979 9.98869 2.0539 10.0714 1.8699C10.2114 1.56057 10.2154 1.06857 10.082 0.775233C10.0077 0.613931 9.90186 0.469107 9.77077 0.349266C9.63969 0.229424 9.48598 0.13698 9.31868 0.0773617C9.15137 0.0177431 8.97384 -0.00784897 8.79651 0.00208886C8.61918 0.0120267 8.44562 0.0572941 8.28602 0.135233Z" fill="#6B7280"/>
</svg>
