<svg width="24" height="24" viewBox="0 0 24 24" fill="none" xmlns="http://www.w3.org/2000/svg">
<path fill-rule="evenodd" clip-rule="evenodd" d="M13.6179 5.41707C13.4349 5.49607 13.2079 5.71107 13.1099 5.89607C12.9959 6.11107 12.9889 6.55507 13.0959 6.76007C13.1359 6.83707 14.0889 7.82207 15.2149 8.95007L17.2609 11.0001H10.5779C3.06694 11.0001 3.63094 10.9771 3.30694 11.3001C3.21128 11.3899 3.13504 11.4983 3.08292 11.6187C3.0308 11.7391 3.00391 11.8689 3.00391 12.0001C3.00391 12.1313 3.0308 12.2611 3.08292 12.3815C3.13504 12.5019 3.21128 12.6103 3.30694 12.7001C3.63094 13.0231 3.06694 13.0001 10.5779 13.0001H17.2609L15.2149 15.0501C14.0889 16.1781 13.1359 17.1631 13.0959 17.2401C12.9889 17.4461 12.9959 17.8891 13.1109 18.1061C13.2239 18.3211 13.4939 18.5501 13.6989 18.6051C13.9489 18.6731 14.3179 18.6281 14.5039 18.5091C14.6859 18.3911 20.4299 12.6391 20.5439 12.4601C20.6039 12.3661 20.6209 12.2661 20.6209 12.0001C20.6209 11.6991 20.6089 11.6421 20.5149 11.5001C20.4559 11.4121 19.0789 10.0141 17.4549 8.39307C14.2309 5.17807 14.4399 5.35907 13.9609 5.36207C13.8444 5.36181 13.7286 5.38039 13.6179 5.41707Z" fill="#10161F"/>
</svg>
