<svg width="18" height="18" viewBox="0 0 18 18" fill="none" xmlns="http://www.w3.org/2000/svg">
<path fill-rule="evenodd" clip-rule="evenodd" d="M11.0038 2.30026C10.8997 2.33696 10.8056 2.39758 10.7293 2.47726C10.6573 2.54455 10.6 2.62588 10.5608 2.71622C10.5215 2.80656 10.5013 2.90398 10.5012 3.00247C10.5011 3.10096 10.5213 3.19841 10.5604 3.2888C10.5995 3.3792 10.6567 3.46061 10.7285 3.52801C10.9445 3.74326 11.006 3.75301 12.1768 3.75301H13.1833L10.0145 6.92551C7.11126 9.83326 6.84276 10.11 6.79776 10.2458C6.77047 10.329 6.75408 10.4155 6.74901 10.503C6.74901 10.8068 6.98076 11.1225 7.26651 11.2073C7.46001 11.265 7.53801 11.265 7.74126 11.2058C7.90026 11.1593 7.98351 11.079 11.0765 7.98826L14.249 4.81876V5.84026C14.249 7.01251 14.2558 7.05526 14.4785 7.27801C14.6135 7.41226 14.822 7.50301 14.999 7.50301C15.3005 7.50301 15.6193 7.26901 15.7033 6.98551C15.7715 6.75601 15.7715 3.00001 15.7033 2.77051C15.6662 2.66092 15.6043 2.56135 15.5225 2.47953C15.4407 2.39772 15.3411 2.33586 15.2315 2.29876C15.0095 2.23276 11.219 2.23426 11.0038 2.30026ZM3.35676 4.55776C2.99001 4.65376 2.65851 4.91026 2.44776 5.26351C2.23926 5.61076 2.24901 5.37526 2.25051 10.149C2.25201 14.1128 2.25651 14.4638 2.30376 14.6453C2.43876 15.162 2.89401 15.5993 3.41076 15.7088C3.71451 15.7733 12.0335 15.7733 12.3373 15.7088C12.6155 15.6503 12.818 15.5348 13.0498 15.3038C13.2808 15.072 13.3963 14.8695 13.4548 14.5913C13.5208 14.28 13.5193 9.74326 13.4533 9.52051C13.3693 9.23701 13.0505 9.00301 12.749 9.00301C12.572 9.00301 12.3635 9.09376 12.2285 9.22801C11.9885 9.46801 11.999 9.34501 11.999 11.9483V14.253H3.74901V6.00301H6.03876C8.63826 6.00301 8.53551 6.01126 8.77176 5.77576C8.90901 5.63851 8.99901 5.43076 8.99901 5.25301C8.99901 5.07526 8.90901 4.86751 8.77176 4.73026C8.53476 4.49326 8.65026 4.50301 5.94126 4.50451C3.78501 4.50601 3.53526 4.51126 3.35676 4.55776Z" fill="#6B7280"/>
</svg>
