<svg width="24" height="24" viewBox="0 0 24 24" fill="none" xmlns="http://www.w3.org/2000/svg">
<path fill-rule="evenodd" clip-rule="evenodd" d="M5.49934 3.04292C4.94898 3.14088 4.43624 3.38861 4.01745 3.75889C3.59865 4.12917 3.28999 4.6077 3.12534 5.14192C3.04234 5.41492 3.02734 5.54492 3.02734 6.00292C3.02734 6.46092 3.04234 6.59092 3.12534 6.86392C3.36334 7.64392 3.92834 8.31292 4.67034 8.68992L5.00034 8.85792V15.1479L4.67034 15.3159C4.30396 15.5017 3.9785 15.759 3.71315 16.0727C3.4478 16.3863 3.24794 16.7498 3.12534 17.1419C3.04234 17.4149 3.02734 17.5449 3.02734 18.0029C3.02734 18.4609 3.04234 18.5909 3.12534 18.8639C3.2726 19.3378 3.53288 19.7687 3.88373 20.1195C4.23459 20.4704 4.66551 20.7307 5.13934 20.8779C5.41234 20.9609 5.54234 20.9759 6.00034 20.9759C6.45834 20.9759 6.58834 20.9609 6.86134 20.8779C7.33518 20.7307 7.76609 20.4704 8.11695 20.1195C8.46781 19.7687 8.72809 19.3378 8.87534 18.8639C8.95834 18.5909 8.97334 18.4609 8.97334 18.0029C8.97334 17.5449 8.95834 17.4149 8.87534 17.1419C8.75275 16.7498 8.55289 16.3863 8.28754 16.0727C8.02219 15.759 7.69672 15.5017 7.33034 15.3159L7.00034 15.1479V14.9439C7.00034 14.6859 7.08934 14.3419 7.22534 14.0729C7.36134 13.8039 7.80134 13.3639 8.07034 13.2279C8.52234 12.9989 8.45534 13.0029 11.9783 13.0029C14.6063 13.0029 15.2933 12.9919 15.6053 12.9449C17.0743 12.7229 18.3103 11.6789 18.7973 10.2479C18.8923 9.96792 18.9993 9.32792 19.0003 9.03992V8.85792L19.3303 8.68992C19.6967 8.5041 20.0222 8.2468 20.2875 7.93319C20.5529 7.61958 20.7528 7.25601 20.8753 6.86392C20.9583 6.59092 20.9733 6.46092 20.9733 6.00292C20.9733 5.54492 20.9583 5.41492 20.8753 5.14192C20.7281 4.66809 20.4678 4.23717 20.117 3.88631C19.7661 3.53545 19.3352 3.27518 18.8613 3.12792C18.5883 3.04492 18.4583 3.02992 18.0003 3.02992C17.5423 3.02992 17.4123 3.04492 17.1393 3.12792C16.6655 3.27518 16.2346 3.53545 15.8837 3.88631C15.5329 4.23717 15.2726 4.66809 15.1253 5.14192C15.0423 5.41492 15.0273 5.54492 15.0273 6.00292C15.0273 6.46092 15.0423 6.59092 15.1253 6.86392C15.3633 7.64392 15.9283 8.31292 16.6703 8.68992L17.0003 8.85792V9.05492C17.0003 9.30492 16.9033 9.67992 16.7713 9.93992C16.6383 10.2029 16.1963 10.6429 15.9303 10.7779C15.4783 11.0069 15.5453 11.0029 12.0223 11.0029C9.39434 11.0029 8.70734 11.0139 8.39534 11.0609C8.00428 11.1152 7.62465 11.2327 7.27134 11.4089C7.19047 11.4521 7.10697 11.4902 7.02134 11.5229C7.01034 11.5229 7.00034 10.9229 7.00034 10.1899V8.85792L7.33034 8.68992C7.69672 8.5041 8.02219 8.2468 8.28754 7.93319C8.55289 7.61958 8.75275 7.25601 8.87534 6.86392C8.95834 6.59092 8.97334 6.46092 8.97334 6.00292C8.97334 5.54492 8.95834 5.41492 8.87534 5.14192C8.58434 4.18592 7.80434 3.40792 6.86134 3.13192C6.50034 3.02592 5.83234 2.98292 5.49934 3.04292ZM6.51234 5.14992C7.14234 5.53692 7.15434 6.44892 6.53534 6.84192C6.42237 6.91354 6.29615 6.96171 6.16418 6.98358C6.03222 7.00545 5.89721 7.00057 5.76717 6.96922C5.63713 6.93788 5.51472 6.88071 5.40721 6.80112C5.2997 6.72154 5.20929 6.62115 5.14134 6.50592C5.03434 6.33192 5.02034 6.27392 5.02034 6.00592C5.02034 5.74692 5.03634 5.67592 5.13134 5.51392C5.22132 5.34725 5.35884 5.2111 5.52639 5.12278C5.69395 5.03446 5.88399 4.99796 6.07234 5.01792C6.22846 5.01997 6.38088 5.0657 6.51234 5.14992ZM18.5123 5.14992C19.1423 5.53692 19.1543 6.44892 18.5353 6.84192C18.4224 6.91354 18.2961 6.96171 18.1642 6.98358C18.0322 7.00545 17.8972 7.00057 17.7672 6.96922C17.6371 6.93788 17.5147 6.88071 17.4072 6.80112C17.2997 6.72154 17.2093 6.62115 17.1413 6.50592C17.0343 6.33192 17.0203 6.27392 17.0203 6.00592C17.0203 5.74692 17.0363 5.67592 17.1313 5.51392C17.2213 5.34725 17.3588 5.2111 17.5264 5.12278C17.694 5.03446 17.884 4.99796 18.0723 5.01792C18.2285 5.01997 18.3809 5.0657 18.5123 5.14992ZM6.51234 17.1499C7.14234 17.5369 7.15434 18.4489 6.53534 18.8419C6.42237 18.9135 6.29615 18.9617 6.16418 18.9836C6.03222 19.0055 5.89721 19.0006 5.76717 18.9692C5.63713 18.9379 5.51472 18.8807 5.40721 18.8011C5.2997 18.7215 5.20929 18.6211 5.14134 18.5059C5.03434 18.3319 5.02034 18.2739 5.02034 18.0059C5.02034 17.7469 5.03634 17.6759 5.13134 17.5139C5.22132 17.3472 5.35884 17.2111 5.52639 17.1228C5.69395 17.0345 5.88399 16.998 6.07234 17.0179C6.22846 17.02 6.38088 17.0657 6.51234 17.1499Z" fill="#6B7280"/>
</svg>
