<svg width="20" height="20" viewBox="0 0 20 20" fill="none" xmlns="http://www.w3.org/2000/svg">
<path fill-rule="evenodd" clip-rule="evenodd" d="M4.56587 1.72854C4.15837 1.83521 3.79003 2.12021 3.55586 2.51271C3.32003 2.90521 3.33503 2.41021 3.3367 10.0244C3.33836 16.3977 3.34253 16.9002 3.39586 17.1035C3.54586 17.6777 4.0517 18.1635 4.62586 18.2852C4.96336 18.3569 15.04 18.3569 15.3775 18.2852C15.6867 18.2202 15.9117 18.0919 16.1692 17.8352C16.4259 17.5777 16.5542 17.3527 16.6192 17.0435C16.6909 16.7044 16.6909 3.29771 16.6192 2.95854C16.4975 2.38437 16.0117 1.87854 15.4375 1.72854C15.235 1.67604 14.8259 1.67188 10.0017 1.67188C5.17753 1.67188 4.76837 1.67604 4.56587 1.72854ZM15.0017 10.001V16.6677H5.0017V3.33438H15.0017V10.001ZM7.2292 6.72021C6.9267 6.81354 6.66837 7.17271 6.66837 7.50104C6.66837 7.83854 6.92586 8.18938 7.24336 8.28354C7.4992 8.35938 12.5042 8.35938 12.76 8.28354C13.075 8.19021 13.335 7.83604 13.335 7.50104C13.335 7.16604 13.075 6.81187 12.76 6.71854C12.5125 6.64437 7.4692 6.64687 7.2292 6.72021ZM7.2292 10.8869C7.11354 10.9277 7.00907 10.995 6.9242 11.0835C6.8443 11.1583 6.78058 11.2487 6.737 11.3491C6.69341 11.4494 6.67088 11.5577 6.67081 11.6671C6.67073 11.7765 6.6931 11.8848 6.73654 11.9853C6.77998 12.0857 6.84357 12.1762 6.92336 12.251C7.16836 12.4952 7.20836 12.501 8.7517 12.501C10.2984 12.501 10.335 12.496 10.5825 12.2485C10.735 12.096 10.835 11.8652 10.835 11.6677C10.835 11.3327 10.575 10.9785 10.26 10.8852C10.0167 10.8127 7.46503 10.8144 7.2292 10.8869Z" fill="#6B7280"/>
</svg>
