<svg width="24" height="24" viewBox="0 0 24 24" fill="none" xmlns="http://www.w3.org/2000/svg">
<path fill-rule="evenodd" clip-rule="evenodd" d="M11.2813 2.02309C9.17234 2.20809 7.30234 2.94909 5.72034 4.22409C4.04534 5.57509 2.81234 7.50409 2.30434 9.57009C2.08834 10.4511 2.02734 10.9801 2.02734 11.9991C2.02734 13.0181 2.08834 13.5471 2.30434 14.4281C3.19034 18.0351 6.14334 20.9301 9.76134 21.7391C10.6053 21.9281 11.0483 21.9751 12.0013 21.9751C12.9543 21.9751 13.3973 21.9281 14.2413 21.7391C17.8593 20.9301 20.8123 18.0351 21.6983 14.4281C21.9113 13.5591 21.9743 13.0151 21.9763 12.0191C21.9773 11.0431 21.9333 10.6151 21.7413 9.75909C21.2833 7.71009 20.0833 5.73409 18.4813 4.39009C16.6573 2.85909 14.5663 2.06909 12.2213 2.02209C11.9081 2.01315 11.5946 2.01348 11.2813 2.02309ZM11.0013 11.9801V19.6021L10.9113 19.5541C10.8623 19.5271 10.6593 19.3421 10.4613 19.1421C9.25334 17.9251 8.36834 15.8101 8.07334 13.4391C7.99534 12.8071 8.00734 10.9881 8.09434 10.3591C8.40034 8.15309 9.12534 6.30209 10.1543 5.09909C10.3783 4.83709 10.9043 4.36109 10.9713 4.36009C10.9883 4.35909 11.0013 7.78909 11.0013 11.9801ZM13.3283 4.58409C14.2133 5.30909 15.0343 6.75509 15.5173 8.43909C16.0263 10.2151 16.1363 12.3151 15.8193 14.1951C15.4923 16.1311 14.7863 17.8041 13.8253 18.9231C13.6003 19.1851 13.0933 19.6391 13.0263 19.6391C13.0123 19.6391 13.0013 16.2011 13.0013 11.9991C13.0013 7.79709 13.0123 4.35909 13.0273 4.35909C13.0413 4.35909 13.1763 4.46009 13.3283 4.58409ZM7.35234 5.79909C5.56334 9.52409 5.56034 14.3601 7.34234 18.0691C7.50334 18.4041 7.62334 18.6791 7.60834 18.6791C7.53534 18.6791 6.81434 18.0961 6.44734 17.7401C5.67556 16.9977 5.06123 16.1075 4.64098 15.1225C4.22074 14.1375 4.0032 13.078 4.00134 12.0071C4.00071 10.9335 4.21705 9.87078 4.63737 8.88285C5.0577 7.89493 5.67335 7.00213 6.44734 6.25809C6.81334 5.90309 7.51234 5.33509 7.54234 5.36709C7.54834 5.37409 7.46334 5.56809 7.35234 5.79909ZM16.9903 5.75409C17.4723 6.15125 17.9137 6.59507 18.3083 7.07909C19.5603 8.68209 20.1813 10.8401 19.9603 12.8191C19.7614 14.7029 18.9007 16.4551 17.5313 17.7641C17.1413 18.1371 16.4883 18.6591 16.4533 18.6241C16.4433 18.6141 16.4623 18.5641 16.4953 18.5121C16.6243 18.3131 17.0073 17.4141 17.2023 16.8501C18.3233 13.6091 18.2483 9.73209 17.0013 6.59909C16.8318 6.18786 16.6473 5.78293 16.4483 5.38509C16.4153 5.31609 16.6103 5.44909 16.9903 5.75409Z" fill="#6B7280"/>
</svg>
