<svg width="24" height="24" viewBox="0 0 24 24" fill="none" xmlns="http://www.w3.org/2000/svg">
<path d="M19.5224 3C19.5688 3 19.6145 3.0021 19.6591 3.00586C19.6972 3.00295 19.7356 3 19.7744 3C20.598 3.00002 21.2654 3.66763 21.2656 4.49121V19.3701C21.2655 20.1938 20.598 20.8613 19.7744 20.8613C18.9507 20.8613 18.2832 20.1938 18.2831 19.3701V7.7373L4.37787 21.5459C3.80026 22.1195 2.86755 22.1176 2.29193 21.542C1.70611 20.956 1.71669 20.0026 2.31537 19.4297L16.3671 5.98242H3.6933C2.86963 5.98239 2.20209 5.31489 2.20209 4.49121C2.20221 3.66764 2.86971 3.00003 3.6933 3H19.5224Z" fill="#5F689B"/>
</svg>
