<svg width="24" height="24" viewBox="0 0 24 24" fill="none" xmlns="http://www.w3.org/2000/svg">
<path fill-rule="evenodd" clip-rule="evenodd" d="M12.4592 20.5858C12.3401 20.5309 12.233 20.4529 12.1442 20.3563C12.0555 20.2597 11.9867 20.1465 11.942 20.0232C11.8972 19.8999 11.8774 19.7689 11.8836 19.6379C11.8899 19.5068 11.922 19.3783 11.9782 19.2598C12.0292 19.1488 13.1312 18.0168 15.5592 15.5798C18.2312 12.8978 19.1112 11.9908 19.2562 11.7698C19.4972 11.4008 19.6972 10.9378 19.8292 10.4468C19.9192 10.1088 19.9332 9.9808 19.9332 9.4398C19.9332 8.8988 19.9192 8.7708 19.8292 8.4328C19.6212 7.6588 19.2982 7.0708 18.7792 6.5248C18.1732 5.8858 17.5092 5.5058 16.6192 5.2878C16.1852 5.1818 15.1252 5.1938 14.6992 5.3098C14.0742 5.4798 13.6372 5.6878 13.1592 6.0428C12.7812 6.3228 4.47723 14.6548 4.34723 14.8838C4.26385 15.0449 4.19265 15.2121 4.13423 15.3838C4.04223 15.6508 4.02523 15.7688 4.02423 16.1398C4.02223 16.4528 4.04323 16.6488 4.09423 16.8198C4.30023 17.5038 4.79923 18.1048 5.40223 18.3908C5.83323 18.5968 6.08023 18.6518 6.55523 18.6478C7.02723 18.6448 7.46223 18.5198 7.84223 18.2768C8.02923 18.1578 9.21023 17.0038 12.1532 14.0658C14.3832 11.8408 16.2602 9.9398 16.3232 9.8418C16.6062 9.4068 16.3822 8.8508 15.8682 8.7138C15.4702 8.6078 15.7262 8.3808 11.5792 12.5188C9.51123 14.5828 7.75623 16.3038 7.67923 16.3448C7.49223 16.4438 6.95323 16.4478 6.77923 16.3528C6.59823 16.2528 6.39623 16.0388 6.31423 15.8598C6.21023 15.6318 6.21423 15.2378 6.32423 15.0188C6.38223 14.9018 7.61123 13.6488 10.2542 11.0108C13.9892 7.2828 14.1082 7.1678 14.4192 7.0098C14.8692 6.7808 15.1712 6.7098 15.6992 6.7098C16.5492 6.7098 17.1682 6.9838 17.7502 7.6188C18.5062 8.4448 18.6612 9.7038 18.1332 10.7318C17.9962 10.9998 17.6962 11.3108 13.7422 15.2748C11.2642 17.7588 9.37423 19.6228 9.19823 19.7558C8.35723 20.3868 7.43923 20.6678 6.33923 20.6288C5.26723 20.5908 4.36523 20.2378 3.56223 19.5428C2.68527 18.7853 2.14086 17.7137 2.04623 16.5588C1.94923 15.2468 2.32323 14.1198 3.17423 13.1548C3.77023 12.4798 11.6122 4.6948 11.9322 4.4618C13.0792 3.6228 14.3372 3.2008 15.6992 3.2008C17.3942 3.2008 18.9552 3.8588 20.1592 5.0798C20.6222 5.5498 20.9162 5.9538 21.2342 6.5598C21.6221 7.30339 21.8561 8.11753 21.9223 8.95359C21.9884 9.78965 21.8853 10.6305 21.6192 11.4258C21.3917 12.0836 21.0638 12.7022 20.6472 13.2598C20.5482 13.3918 18.8992 15.0718 16.9832 16.9938C14.1802 19.8058 13.4602 20.5068 13.2992 20.5838C13.1682 20.6466 13.0248 20.6793 12.8795 20.6797C12.7341 20.68 12.5906 20.648 12.4592 20.5858Z" fill="#286CF7"/>
</svg>
