<svg width="66" height="63" viewBox="0 0 66 63" fill="none" xmlns="http://www.w3.org/2000/svg">
<path d="M48.0184 40.9766C52.6654 40.9766 56.8903 42.4085 59.996 44.4293C61.5512 45.442 62.8825 46.6361 63.8502 47.9385C64.7991 49.222 65.5056 50.7647 65.5056 52.4157C65.5056 54.1938 64.6895 55.6187 63.4911 56.6479C62.3602 57.6135 60.8867 58.24 59.3641 58.671C56.3027 59.5353 52.2527 59.818 48.0184 59.818C43.7842 59.818 39.7342 59.5353 36.6751 58.671C35.1502 58.24 33.6766 57.6135 32.5481 56.6479C31.345 55.621 30.5312 54.1938 30.5312 52.4157C30.5312 50.7623 31.2377 49.222 32.1867 47.9408C33.1543 46.636 34.4857 45.4396 36.0409 44.4316C39.1466 42.4062 43.3715 40.9766 48.0184 40.9766Z" fill="url(#paint0_linear_573_3068)"/>
<path d="M25.9818 31.1484C30.0926 31.1484 34.0351 29.5154 36.9419 26.6086C39.8487 23.7018 41.4818 19.7593 41.4818 15.6484C41.4818 11.5376 39.8487 7.5951 36.9419 4.68828C34.0351 1.78147 30.0926 0.148438 25.9818 0.148438C21.8709 0.148438 17.9284 1.78147 15.0216 4.68828C12.1148 7.5951 10.4818 11.5376 10.4818 15.6484C10.4818 19.7593 12.1148 23.7018 15.0216 26.6086C17.9284 29.5154 21.8709 31.1484 25.9818 31.1484ZM25.9818 34.5929C32.8466 34.5929 39.0879 36.6871 43.6759 39.6424C45.9733 41.1236 47.9401 42.8699 49.3696 44.7747C50.7715 46.6519 51.8151 48.908 51.8151 51.3225C51.8151 53.9231 50.6096 56.007 48.8391 57.5122C47.1686 58.9244 44.9917 59.8407 42.7424 60.471C38.2199 61.7351 32.2369 62.1484 25.9818 62.1484C19.7267 62.1484 13.7437 61.7351 9.22455 60.471C6.97188 59.8407 4.79499 58.9244 3.12788 57.5122C1.35055 56.0104 0.148438 53.9231 0.148438 51.3225C0.148438 48.9045 1.1921 46.6519 2.59399 44.7781C4.02344 42.8699 5.99022 41.1201 8.28766 39.6459C12.8757 36.6837 19.117 34.5929 25.9818 34.5929Z" fill="url(#paint1_linear_573_3068)" fill-opacity="0.2" stroke="white" stroke-width="0.3"/>
<path d="M47.672 38.4388C50.4547 38.4388 53.1235 37.3222 55.0912 35.3346C57.0589 33.347 58.1643 30.6513 58.1643 27.8405C58.1643 25.0296 57.0589 22.3339 55.0912 20.3464C53.1235 18.3588 50.4547 17.2422 47.672 17.2422C44.8893 17.2422 42.2205 18.3588 40.2528 20.3464C38.2851 22.3339 37.1797 25.0296 37.1797 27.8405C37.1797 30.6513 38.2851 33.347 40.2528 35.3346C42.2205 37.3222 44.8893 38.4388 47.672 38.4388Z" fill="url(#paint2_linear_573_3068)"/>
<defs>
<linearGradient id="paint0_linear_573_3068" x1="40.0697" y1="24.3151" x2="63.9159" y2="56.6399" gradientUnits="userSpaceOnUse">
<stop stop-color="#FFE5B9"/>
<stop offset="1" stop-color="#FFB333"/>
</linearGradient>
<linearGradient id="paint1_linear_573_3068" x1="16.0459" y1="5.18263" x2="46.251" y2="59.7638" gradientUnits="userSpaceOnUse">
<stop stop-color="#FFF8E6"/>
<stop offset="1" stop-color="#FFAE22"/>
</linearGradient>
<linearGradient id="paint2_linear_573_3068" x1="39.7235" y1="24.1311" x2="63.5697" y2="56.4559" gradientUnits="userSpaceOnUse">
<stop stop-color="#FFE5B9"/>
<stop offset="0.5" stop-color="#F9C88F"/>
<stop offset="1" stop-color="#FB9637"/>
</linearGradient>
</defs>
</svg>
