<svg width="64" height="62" viewBox="0 0 64 62" fill="none" xmlns="http://www.w3.org/2000/svg">
<path d="M28.5428 38.1885C30.0882 38.1885 31.5702 38.8024 32.663 39.8952C33.7557 40.9879 34.3696 42.47 34.3696 44.0153V55.6689C34.3696 57.2142 33.7557 58.6963 32.663 59.789C31.5702 60.8817 30.0882 61.4956 28.5428 61.4956H16.8893C15.3439 61.4956 13.8619 60.8817 12.7691 59.789C11.6764 58.6963 11.0625 57.2142 11.0625 55.6689V44.0153C11.0625 42.47 11.6764 40.9879 12.7691 39.8952C13.8619 38.8024 15.3439 38.1885 16.8893 38.1885H28.5428ZM28.5428 9.05469C30.0882 9.05469 31.5702 9.66858 32.663 10.7613C33.7557 11.854 34.3696 13.3361 34.3696 14.8815V26.535C34.3696 28.0804 33.7557 29.5624 32.663 30.6552C31.5702 31.7479 30.0882 32.3618 28.5428 32.3618H16.8893C15.3439 32.3618 13.8619 31.7479 12.7691 30.6552C11.6764 29.5624 11.0625 28.0804 11.0625 26.535V14.8815C11.0625 13.3361 11.6764 11.854 12.7691 10.7613C13.8619 9.66858 15.3439 9.05469 16.8893 9.05469H28.5428ZM57.6767 9.05469C59.222 9.05469 60.7041 9.66858 61.7968 10.7613C62.8896 11.854 63.5035 13.3361 63.5035 14.8815V26.535C63.5035 28.0804 62.8896 29.5624 61.7968 30.6552C60.7041 31.7479 59.222 32.3618 57.6767 32.3618H46.0231C44.4778 32.3618 42.9957 31.7479 41.903 30.6552C40.8103 29.5624 40.1964 28.0804 40.1964 26.535V14.8815C40.1964 13.3361 40.8103 11.854 41.903 10.7613C42.9957 9.66858 44.4778 9.05469 46.0231 9.05469H57.6767Z" fill="url(#paint0_linear_573_3027)"/>
<rect width="51.2491" height="51.2491" rx="16" fill="white" fill-opacity="0.21"/>
<defs>
<linearGradient id="paint0_linear_573_3027" x1="8.89524" y1="12.1608" x2="46.1402" y2="53.8752" gradientUnits="userSpaceOnUse">
<stop stop-color="#DCDDFF"/>
<stop offset="1" stop-color="#FFD3F1"/>
</linearGradient>
</defs>
</svg>
