<svg width="51" height="55" viewBox="0 0 51 55" fill="none" xmlns="http://www.w3.org/2000/svg">
<path d="M48.1318 5.92188C49.2354 5.92249 50.1311 6.81832 50.1318 7.92188V10.6533C50.1335 10.7047 50.1357 10.7561 50.1357 10.8076V49.8896L50.1318 50.002V52.7744C50.1317 53.8785 49.2358 54.7738 48.1318 54.7744H13.0508C11.9464 54.7743 11.0509 53.8788 11.0508 52.7744V20.1846C11.0512 19.6548 11.2612 19.1452 11.6357 18.7705L23.8994 6.50781C24.2743 6.13366 24.7838 5.92193 25.3135 5.92188H48.1318Z" fill="url(#paint0_linear_573_3035)"/>
<path d="M14.3965 1.08984C13.7944 1.24272 13.2279 1.50995 12.7305 1.88086L12.502 2.06348L12.2061 2.33496L1.42871 13.1123C0.943248 13.5974 0.56975 14.1816 0.333008 14.8232L0.240234 15.1016L0.191406 15.2988H14.3965V1.08984Z" fill="url(#paint1_linear_573_3035)" stroke="white" stroke-width="0.3"/>
<path d="M19.6914 0.150391V15.877C19.6914 16.8251 19.3376 17.7396 18.7002 18.4414C18.0628 19.143 17.1867 19.5818 16.2432 19.6729L16.2363 19.6738L15.8848 19.6904V19.6914H0.150391V43.9668C0.150013 45.1614 0.600811 46.3125 1.41309 47.1885C2.22539 48.0645 3.339 48.6008 4.53027 48.6904L4.89062 48.7021H34.1973C35.3917 48.7024 36.5421 48.2515 37.418 47.4395C38.2391 46.678 38.7624 45.6517 38.8984 44.5449L38.9199 44.3223L38.9316 43.9619V4.88477C38.9319 3.69031 38.4811 2.53992 37.6689 1.66406C36.8568 0.78827 35.7437 0.250897 34.5527 0.161133L34.1914 0.150391H19.6914Z" fill="#FFBF52" fill-opacity="0.1" stroke="white" stroke-width="0.3"/>
<rect x="9.875" y="26.9375" width="19.5409" height="2.44262" rx="1.22131" fill="white"/>
<rect x="9.875" y="34.2656" width="19.5409" height="2.44262" rx="1.22131" fill="white"/>
<defs>
<linearGradient id="paint0_linear_573_3035" x1="22.0434" y1="20.5776" x2="40.3627" y2="46.2265" gradientUnits="userSpaceOnUse">
<stop stop-color="#FFD8C5"/>
<stop offset="0.370192" stop-color="#FFE8C0" stop-opacity="0.84"/>
<stop offset="1" stop-color="#FFB434"/>
</linearGradient>
<linearGradient id="paint1_linear_573_3035" x1="7.18731" y1="6.73557" x2="15.7185" y2="16.6138" gradientUnits="userSpaceOnUse">
<stop stop-color="#FFCCCB"/>
<stop offset="1" stop-color="#FFB434"/>
</linearGradient>
</defs>
</svg>
