<svg width="20" height="20" viewBox="0 0 20 20" fill="none" xmlns="http://www.w3.org/2000/svg">
<rect x="0.5" y="0.5" width="19" height="19" rx="9.5" stroke="#6B7280"/>
<path fill-rule="evenodd" clip-rule="evenodd" d="M13.408 6.82422C13.4216 6.82321 13.4352 6.82031 13.449 6.82031C13.7518 6.82031 13.9978 7.06632 13.9978 7.36914V12.8389C13.9978 13.1417 13.7518 13.3877 13.449 13.3877C13.1462 13.3876 12.9012 13.1417 12.9012 12.8389V8.56152L7.78886 13.6387C7.57658 13.8495 7.23389 13.8491 7.02225 13.6377C6.80682 13.4223 6.81093 13.072 7.03104 12.8613L12.1971 7.91699H7.53788C7.23524 7.91682 6.9901 7.6718 6.99003 7.36914C6.99003 7.06642 7.2352 6.82048 7.53788 6.82031H13.3572C13.3744 6.82031 13.3915 6.82282 13.408 6.82422Z" fill="#6B7280"/>
</svg>
