<svg width="30" height="30" viewBox="0 0 30 30" fill="none" xmlns="http://www.w3.org/2000/svg">
<rect x="-0.5" y="0.5" width="29" height="29" rx="3.5" transform="matrix(-1 0 0 1 29 0)" fill="white"/>
<rect x="-0.5" y="0.5" width="29" height="29" rx="3.5" transform="matrix(-1 0 0 1 29 0)" stroke="#E5E7EB"/>
<path fill-rule="evenodd" clip-rule="evenodd" d="M13.3019 9.09162C13.4413 9.16026 14.1051 9.79437 16.1837 11.8466C18.641 14.2729 18.8886 14.5285 18.9436 14.6902C19.0188 14.8901 19.0188 15.1099 18.9436 15.3098C18.8886 15.4715 18.641 15.7271 16.1837 18.1534C14.1051 20.2056 13.4413 20.8397 13.3019 20.9084C13.1922 20.9612 13.0728 20.9919 12.9509 20.9986C12.8289 21.0053 12.7069 20.988 12.5918 20.9476C12.4768 20.9072 12.3711 20.8446 12.2809 20.7634C12.1908 20.6822 12.118 20.5841 12.0669 20.4748C11.9752 20.2761 11.9779 19.9428 12.0742 19.7332C12.1311 19.6086 12.6894 19.0368 14.4655 17.2853L16.7834 15L14.4655 12.7147C12.6894 10.9632 12.1311 10.3914 12.0742 10.2668C11.9779 10.0572 11.9752 9.72391 12.0669 9.52519C12.118 9.41592 12.1908 9.3178 12.2809 9.23661C12.3711 9.15543 12.4768 9.0928 12.5918 9.05241C12.7069 9.01202 12.8289 8.99468 12.9509 9.00142C13.0728 9.00815 13.1922 9.03881 13.3019 9.09162Z" fill="#E5E7EB"/>
</svg>
