<svg width="7" height="12" viewBox="0 0 7 12" fill="none" xmlns="http://www.w3.org/2000/svg">
<path fill-rule="evenodd" clip-rule="evenodd" d="M5.69807 0.0916151C5.5587 0.160265 4.89487 0.79437 2.81626 2.84663C0.35898 5.27286 0.111418 5.52848 0.0564041 5.69017C-0.0188014 5.89008 -0.0188014 6.10992 0.0564041 6.30983C0.111418 6.47151 0.35898 6.72714 2.81626 9.15337C4.89487 11.2056 5.5587 11.8397 5.69807 11.9084C5.80782 11.9612 5.92717 11.9919 6.04912 11.9986C6.17106 12.0053 6.29315 11.988 6.4082 11.9476C6.52325 11.9072 6.62895 11.8446 6.71909 11.7634C6.80924 11.6822 6.88201 11.5841 6.93313 11.4748C7.02482 11.2761 7.02207 10.9428 6.9258 10.7332C6.86895 10.6086 6.31056 10.0368 4.53453 8.28531L2.21661 6L4.53453 3.71469C6.31056 1.96322 6.86895 1.39144 6.9258 1.26679C7.02207 1.05723 7.02482 0.723914 6.93313 0.525192C6.88201 0.415915 6.80924 0.317803 6.71909 0.236615C6.62895 0.155427 6.52325 0.0927992 6.4082 0.0524098C6.29315 0.0120203 6.17106 -0.00531739 6.04912 0.00141513C5.92717 0.00814764 5.80782 0.0388147 5.69807 0.0916151Z" fill="#E5E7EB"/>
</svg>
