<svg width="12" height="11" viewBox="0 0 12 11" fill="none" xmlns="http://www.w3.org/2000/svg">
<path fill-rule="evenodd" clip-rule="evenodd" d="M11.3819 0.0522914C11.6229 0.125683 11.8741 0.380718 11.947 0.627496C12.0181 0.864184 12.0181 0.96051 11.9442 1.20821C11.8879 1.39994 11.8104 1.48251 9.83074 3.45307L7.77632 5.49885L9.83074 7.54464C11.8104 9.5152 11.8879 9.59776 11.9442 9.7895C12.0181 10.0372 12.0181 10.1335 11.947 10.3702C11.8704 10.6262 11.6239 10.8711 11.3662 10.9472C11.128 11.0179 11.032 11.0179 10.7818 10.9454C10.5879 10.8885 10.5048 10.8106 8.11888 8.44093C5.7339 6.07039 5.65542 5.98782 5.59817 5.79517C5.56586 5.68508 5.54 5.55206 5.54 5.49885C5.54 5.44564 5.56586 5.31262 5.59817 5.20253C5.65542 5.00988 5.7339 4.92732 8.11888 2.55677C10.5048 0.187148 10.5879 0.10917 10.7818 0.0522914C11.0237 -0.0174305 11.1539 -0.0174305 11.3819 0.0522914ZM5.84193 0.0522914C6.06723 0.121096 6.32484 0.374296 6.40424 0.605479C6.47919 0.805866 6.47886 1.02639 6.40332 1.22655C6.34885 1.38985 6.14386 1.60544 4.28981 3.45307L2.23632 5.49885L4.28981 7.54464C6.14386 9.39227 6.34885 9.60785 6.40332 9.77115C6.43692 9.87302 6.45709 9.97879 6.46334 10.0858C6.46334 10.4574 6.17803 10.8436 5.82624 10.9472C5.58802 11.0179 5.49199 11.0179 5.24177 10.9454C5.04787 10.8885 4.96477 10.8106 2.57887 8.44093C0.193899 6.07039 0.115416 5.98782 0.0581695 5.79517C0.0258528 5.68508 -3.07522e-07 5.55206 -3.07522e-07 5.49885C-3.07522e-07 5.44564 0.0258528 5.31262 0.0581695 5.20253C0.115416 5.00988 0.193899 4.92732 2.57887 2.55677C4.96477 0.187148 5.04787 0.10917 5.24177 0.0522914C5.48368 -0.0174305 5.61387 -0.0174305 5.84193 0.0522914Z" fill="#E5E7EB"/>
</svg>
