<svg width="12" height="11" viewBox="0 0 12 11" fill="none" xmlns="http://www.w3.org/2000/svg">
<path fill-rule="evenodd" clip-rule="evenodd" d="M0.618062 0.0522914C0.377071 0.125683 0.125925 0.380718 0.0529811 0.627496C-0.0181156 0.864184 -0.0181153 0.96051 0.0557514 1.20821C0.112075 1.39994 0.189634 1.48251 2.16926 3.45307L4.22368 5.49885L2.16926 7.54464C0.189634 9.5152 0.112075 9.59776 0.0557514 9.7895C-0.0181153 10.0372 -0.0181156 10.1335 0.0529811 10.3702C0.129618 10.6262 0.376148 10.8711 0.633758 10.9472C0.871979 11.0179 0.968005 11.0179 1.21823 10.9454C1.41213 10.8885 1.49523 10.8106 3.88112 8.44093C6.2661 6.07039 6.34458 5.98782 6.40183 5.79517C6.43414 5.68508 6.46 5.55206 6.46 5.49885C6.46 5.44564 6.43414 5.31262 6.40183 5.20253C6.34458 5.00988 6.2661 4.92732 3.88112 2.55677C1.49523 0.187148 1.41213 0.10917 1.21823 0.0522914C0.976315 -0.0174305 0.846125 -0.0174305 0.618062 0.0522914ZM6.15807 0.0522914C5.93277 0.121096 5.67516 0.374296 5.59576 0.605479C5.52081 0.805866 5.52114 1.02639 5.59668 1.22655C5.65115 1.38985 5.85614 1.60544 7.71019 3.45307L9.76368 5.49885L7.71019 7.54464C5.85614 9.39227 5.65115 9.60785 5.59668 9.77115C5.56308 9.87302 5.54291 9.97879 5.53666 10.0858C5.53666 10.4574 5.82197 10.8436 6.17376 10.9472C6.41198 11.0179 6.50801 11.0179 6.75823 10.9454C6.95213 10.8885 7.03523 10.8106 9.42113 8.44093C11.8061 6.07039 11.8846 5.98782 11.9418 5.79517C11.9741 5.68508 12 5.55206 12 5.49885C12 5.44564 11.9741 5.31262 11.9418 5.20253C11.8846 5.00988 11.8061 4.92732 9.42113 2.55677C7.03523 0.187148 6.95213 0.10917 6.75823 0.0522914C6.51632 -0.0174305 6.38613 -0.0174305 6.15807 0.0522914Z" fill="#E5E7EB"/>
</svg>
