<svg width="30" height="30" viewBox="0 0 30 30" fill="none" xmlns="http://www.w3.org/2000/svg">
<rect x="0.5" y="0.5" width="29" height="29" rx="3.5" fill="white"/>
<rect x="0.5" y="0.5" width="29" height="29" rx="3.5" stroke="#E5E7EB"/>
<path fill-rule="evenodd" clip-rule="evenodd" d="M17.6981 9.09162C17.5587 9.16026 16.8949 9.79437 14.8163 11.8466C12.359 14.2729 12.1114 14.5285 12.0564 14.6902C11.9812 14.8901 11.9812 15.1099 12.0564 15.3098C12.1114 15.4715 12.359 15.7271 14.8163 18.1534C16.8949 20.2056 17.5587 20.8397 17.6981 20.9084C17.8078 20.9612 17.9272 20.9919 18.0491 20.9986C18.1711 21.0053 18.2931 20.988 18.4082 20.9476C18.5232 20.9072 18.6289 20.8446 18.7191 20.7634C18.8092 20.6822 18.882 20.5841 18.9331 20.4748C19.0248 20.2761 19.0221 19.9428 18.9258 19.7332C18.8689 19.6086 18.3106 19.0368 16.5345 17.2853L14.2166 15L16.5345 12.7147C18.3106 10.9632 18.8689 10.3914 18.9258 10.2668C19.0221 10.0572 19.0248 9.72391 18.9331 9.52519C18.882 9.41592 18.8092 9.3178 18.7191 9.23661C18.6289 9.15543 18.5232 9.0928 18.4082 9.05241C18.2931 9.01202 18.1711 8.99468 18.0491 9.00142C17.9272 9.00815 17.8078 9.03881 17.6981 9.09162Z" fill="#E5E7EB"/>
</svg>
