<svg width="30" height="30" viewBox="0 0 30 30" fill="none" xmlns="http://www.w3.org/2000/svg">
<rect x="-0.5" y="0.5" width="29" height="29" rx="3.5" transform="matrix(-1 0 0 1 29 0)" fill="white"/>
<rect x="-0.5" y="0.5" width="29" height="29" rx="3.5" transform="matrix(-1 0 0 1 29 0)" stroke="#E5E7EB"/>
<path fill-rule="evenodd" clip-rule="evenodd" d="M20.3819 10.0523C20.6229 10.1257 20.8741 10.3807 20.947 10.6275C21.0181 10.8642 21.0181 10.9605 20.9442 11.2082C20.8879 11.3999 20.8104 11.4825 18.8307 13.4531L16.7763 15.4989L18.8307 17.5446C20.8104 19.5152 20.8879 19.5978 20.9442 19.7895C21.0181 20.0372 21.0181 20.1335 20.947 20.3702C20.8704 20.6262 20.6239 20.8711 20.3662 20.9472C20.128 21.0179 20.032 21.0179 19.7818 20.9454C19.5879 20.8885 19.5048 20.8106 17.1189 18.4409C14.7339 16.0704 14.6554 15.9878 14.5982 15.7952C14.5659 15.6851 14.54 15.5521 14.54 15.4989C14.54 15.4456 14.5659 15.3126 14.5982 15.2025C14.6554 15.0099 14.7339 14.9273 17.1189 12.5568C19.5048 10.1871 19.5879 10.1092 19.7818 10.0523C20.0237 9.98257 20.1539 9.98257 20.3819 10.0523ZM14.8419 10.0523C15.0672 10.1211 15.3248 10.3743 15.4042 10.6055C15.4792 10.8059 15.4789 11.0264 15.4033 11.2266C15.3488 11.3898 15.1439 11.6054 13.2898 13.4531L11.2363 15.4989L13.2898 17.5446C15.1439 19.3923 15.3488 19.6079 15.4033 19.7711C15.4369 19.873 15.4571 19.9788 15.4633 20.0858C15.4633 20.4574 15.178 20.8436 14.8262 20.9472C14.588 21.0179 14.492 21.0179 14.2418 20.9454C14.0479 20.8885 13.9648 20.8106 11.5789 18.4409C9.1939 16.0704 9.11542 15.9878 9.05817 15.7952C9.02585 15.6851 9 15.5521 9 15.4989C9 15.4456 9.02585 15.3126 9.05817 15.2025C9.11542 15.0099 9.1939 14.9273 11.5789 12.5568C13.9648 10.1871 14.0479 10.1092 14.2418 10.0523C14.4837 9.98257 14.6139 9.98257 14.8419 10.0523Z" fill="#E5E7EB"/>
</svg>
