<svg width="30" height="30" viewBox="0 0 30 30" fill="none" xmlns="http://www.w3.org/2000/svg">
<rect x="0.5" y="0.5" width="29" height="29" rx="3.5" fill="white"/>
<rect x="0.5" y="0.5" width="29" height="29" rx="3.5" stroke="#E5E7EB"/>
<path fill-rule="evenodd" clip-rule="evenodd" d="M9.61806 10.0523C9.37707 10.1257 9.12592 10.3807 9.05298 10.6275C8.98188 10.8642 8.98188 10.9605 9.05575 11.2082C9.11207 11.3999 9.18963 11.4825 11.1693 13.4531L13.2237 15.4989L11.1693 17.5446C9.18963 19.5152 9.11207 19.5978 9.05575 19.7895C8.98188 20.0372 8.98188 20.1335 9.05298 20.3702C9.12962 20.6262 9.37615 20.8711 9.63376 20.9472C9.87198 21.0179 9.96801 21.0179 10.2182 20.9454C10.4121 20.8885 10.4952 20.8106 12.8811 18.4409C15.2661 16.0704 15.3446 15.9878 15.4018 15.7952C15.4341 15.6851 15.46 15.5521 15.46 15.4989C15.46 15.4456 15.4341 15.3126 15.4018 15.2025C15.3446 15.0099 15.2661 14.9273 12.8811 12.5568C10.4952 10.1871 10.4121 10.1092 10.2182 10.0523C9.97632 9.98257 9.84613 9.98257 9.61806 10.0523ZM15.1581 10.0523C14.9328 10.1211 14.6752 10.3743 14.5958 10.6055C14.5208 10.8059 14.5211 11.0264 14.5967 11.2266C14.6512 11.3898 14.8561 11.6054 16.7102 13.4531L18.7637 15.4989L16.7102 17.5446C14.8561 19.3923 14.6512 19.6079 14.5967 19.7711C14.5631 19.873 14.5429 19.9788 14.5367 20.0858C14.5367 20.4574 14.822 20.8436 15.1738 20.9472C15.412 21.0179 15.508 21.0179 15.7582 20.9454C15.9521 20.8885 16.0352 20.8106 18.4211 18.4409C20.8061 16.0704 20.8846 15.9878 20.9418 15.7952C20.9741 15.6851 21 15.5521 21 15.4989C21 15.4456 20.9741 15.3126 20.9418 15.2025C20.8846 15.0099 20.8061 14.9273 18.4211 12.5568C16.0352 10.1871 15.9521 10.1092 15.7582 10.0523C15.5163 9.98257 15.3861 9.98257 15.1581 10.0523Z" fill="#E5E7EB"/>
</svg>
