<svg width="11" height="18" viewBox="0 0 11 18" fill="none" xmlns="http://www.w3.org/2000/svg">
<path fill-rule="evenodd" clip-rule="evenodd" d="M0.76924 0.100455C0.476805 0.243579 0.240365 0.48002 0.0972408 0.772455C-0.0360925 1.06579 -0.0320933 1.55779 0.107907 1.86712C0.190573 2.05112 1.00257 2.89512 3.58524 5.48046L6.95591 8.85379L3.58524 12.2271C1.00257 14.8125 0.190573 15.6565 0.107907 15.8405C-0.0320933 16.1498 -0.0360925 16.6418 0.0972408 16.9351C0.171584 17.0964 0.277404 17.2412 0.40849 17.3611C0.539575 17.4809 0.693282 17.5734 0.860587 17.633C1.02789 17.6926 1.20542 17.7182 1.38275 17.7083C1.56008 17.6983 1.73364 17.6531 1.89324 17.5751C2.09591 17.4738 3.06391 16.5351 6.08524 13.5085C9.89457 9.69379 10.0172 9.56446 10.0986 9.28446C10.2052 8.92179 10.2052 8.78579 10.0986 8.42312C10.0172 8.14312 9.89457 8.01379 6.08524 4.19912C3.06391 1.17245 2.09591 0.233788 1.89324 0.132455C1.71791 0.0509529 1.5278 0.00607791 1.33454 0.000575704C1.14127 -0.0049265 0.948919 0.0290595 0.76924 0.100455Z" fill="white"/>
</svg>
